<svg xmlns="http://www.w3.org/2000/svg" viewBox="0 0 496.794 496.794"><path fill="#3E4347" d="M183.45 408.4h48.86v80.16h-48.85z"/><path fill="#5B5F63" d="M284.22 494.86c-3.2-13-14.83-22.67-28.8-22.67h-95.07c-13.97 0-25.62 9.67-28.8 22.66h152.67z"/><path fill="#E9EFF4" d="M400 419.34l-383.93 1.38c-11.2.03-19-11.2-15.02-21.67l74.42-196.48c2.35-6.2 8.28-10.32 14.92-10.33l234.23-.5c6.63-.02 12.6 4.06 14.96 10.26l75.26 195.6c4.05 10.46-3.65 21.7-14.87 21.74z"/><path fill="#428DC3" d="M21.08 396.9L88.2 201.3l238.7-.54 68.05 194.85z"/><g fill="#E9EFF4"><path d="M354.3 240.17l-293.35.7-4.5 11.93 302.4-.77zM379.08 304.6l-342.62.96-6.18 16.34 355.06-1.04zM274.17 196.17l42.08 211.6-19.57.07L262.1 196.2zM141.03 196.46l12.08-.03-33.33 212.03-19.63.06zM201.6 196.33l12.07-.03 4.4 211.82-19.6.07z"/></g><g fill="#FFD93B"><path d="M435.8 10.64l-23.52-8.7-10 37.02 10.43 3.92zM444.52 62.48l49.22-34.85L471.96 8.9 435.8 54.2zM451.9 80.77V96l44.9 6.1V74.68zM444.95 125.63l22.66 23.1 9.6-19.18L449.3 113zM422.3 148.72l33.1 55.32 18.96-18.28-45.1-46.18zM394.86 151.77l-3.06 45.75 24.4-2.63-10.9-43.13zM346.94 171.8l19.17 6.98 6.1-30.06-14.8-6.1zM289 139.58l13.5 21.4 40.52-33.6-8.27-12.2zM332.14 88.4L279 80.76v25.27l53.14-6.53zM343.02 52.9L310.8 16.72l-11.33 26.15 39.63 19.6zM377 39.6l-2.62-37.67-23.95 9.14L363.7 39.6z"/><circle cx="389.626" cy="93.405" r="48.32"/></g></svg>